<svg viewBox="0 0 441 377" fill="none" xmlns="http://www.w3.org/2000/svg">
<path fill-rule="evenodd" clip-rule="evenodd" d="M0.00134277 376.559C0.00134277 376.627 0.0566428 376.683 0.124851 376.683L434.785 376.683C438.099 376.683 440.785 373.996 440.785 370.683V337.581C440.785 337.581 440.785 337.581 440.784 337.581V337.581C440.784 337.581 440.784 337.581 440.784 337.58V311.411C440.784 308.194 439.506 305.11 437.232 302.835L251.832 117.083C249.691 114.939 248.488 112.035 248.488 109.005L248.488 28.4265C248.488 26.8355 247.856 25.3096 246.731 24.1844L224.31 1.75808C221.967 -0.585756 218.167 -0.585758 215.824 1.75808L193.591 23.9964C192.466 25.1215 191.834 26.6474 191.834 28.2385L191.834 108.818C191.834 111.847 190.631 114.753 188.489 116.895L3.55179 302.414C1.27774 304.689 6.10352e-05 307.773 6.10352e-05 310.99V376.261C6.10352e-05 376.261 0.000465688 376.261 0.000701904 376.261V376.261C0.00093812 376.261 0.00134277 376.261 0.00134277 376.261V376.559ZM48.7847 327.344C45.0128 331.126 47.6916 337.581 53.0331 337.581L387.279 337.581C392.622 337.581 395.3 331.123 391.525 327.342L224.027 159.566C221.84 157.378 218.293 157.378 216.106 159.566L48.7847 327.344ZM23.6585 239.128V251.945C23.6585 257.291 30.1221 259.968 33.9017 256.187L176.791 113.264C178.575 111.479 179.577 109.057 179.577 106.533V52.4932C179.577 47.1513 173.121 44.4727 169.34 48.2453L144.501 73.023C143.373 74.1486 142.738 75.677 142.738 77.2708V110.918C142.738 113.526 141.703 116.028 139.858 117.872L27.2138 230.544C24.9374 232.821 23.6585 235.909 23.6585 239.128ZM252.387 212.904C254.729 210.561 254.729 206.763 252.387 204.42L224.028 176.054C221.84 173.866 218.293 173.866 216.106 176.054L187.747 204.42C185.405 206.763 185.405 210.561 187.747 212.904L219.348 244.511C221.524 246.687 224.475 247.91 227.552 247.91H253.142C254.965 247.91 256.442 246.432 256.442 244.609V241.849C256.442 240.662 255.008 240.068 254.169 240.907V240.907C253.09 241.988 251.34 241.988 250.261 240.907L240.146 230.789C238.588 229.232 238.588 226.706 240.146 225.149L252.387 212.904ZM270.794 48.245C267.012 44.4724 260.557 47.151 260.557 52.4929V106.533C260.557 109.057 261.559 111.479 263.342 113.264L406.232 256.187C410.011 259.968 416.475 257.291 416.475 251.945V239.128C416.475 235.909 415.196 232.821 412.92 230.544L300.274 117.872C298.432 116.028 297.396 113.526 297.396 110.918V77.2709C297.396 75.677 296.762 74.1486 295.634 73.023L270.794 48.245Z" />
</svg>
