<svg viewBox="0 0 1624 2" fill="none" xmlns="http://www.w3.org/2000/svg">
<path d="M2 2V0L0 2H2Z"/>
<rect x="2" width="13.5849" height="2"/>
<path d="M15.585 2V0H17.585L15.585 2Z"/>
<path d="M354 2V0L352 2H354Z"/>
<rect x="354" width="13.5849" height="2"/>
<path d="M367.585 2V0H369.585L367.585 2Z"/>
<path d="M178 2V0L176 2H178Z"/>
<rect x="178" width="13.5849" height="2"/>
<path d="M191.585 2V0H193.585L191.585 2Z"/>
<path d="M530 2V0L528 2H530Z"/>
<rect x="530" width="13.5849" height="2"/>
<path d="M543.585 2V0H545.585L543.585 2Z"/>
<path d="M90 2V0L88 2H90Z"/>
<rect x="90" width="13.5849" height="2"/>
<path d="M103.585 2V0H105.585L103.585 2Z"/>
<path d="M442 2V0L440 2H442Z"/>
<rect x="442" width="13.5849" height="2"/>
<path d="M455.585 2V0H457.585L455.585 2Z"/>
<path d="M266 2V0L264 2H266Z"/>
<rect x="266" width="13.5849" height="2"/>
<path d="M279.585 2V0H281.585L279.585 2Z"/>
<path d="M618 2V0L616 2H618Z"/>
<rect x="618" width="13.5849" height="2"/>
<path d="M631.585 2V0H633.585L631.585 2Z"/>
<path d="M46 2V0L44 2H46Z"/>
<rect x="46" width="13.5849" height="2"/>
<path d="M59.585 2V0H61.585L59.585 2Z"/>
<path d="M398 2V0L396 2H398Z"/>
<rect x="398" width="13.5849" height="2"/>
<path d="M411.585 2V0H413.585L411.585 2Z"/>
<path d="M222 2V0L220 2H222Z"/>
<rect x="222" width="13.5849" height="2"/>
<path d="M235.585 2V0H237.585L235.585 2Z"/>
<path d="M574 2V0L572 2H574Z"/>
<rect x="574" width="13.5849" height="2"/>
<path d="M587.585 2V0H589.585L587.585 2Z"/>
<path d="M134 2V0L132 2H134Z"/>
<rect x="134" width="13.5849" height="2"/>
<path d="M147.585 2V0H149.585L147.585 2Z"/>
<path d="M486 2V0L484 2H486Z"/>
<rect x="486" width="13.5849" height="2"/>
<path d="M499.585 2V0H501.585L499.585 2Z"/>
<path d="M310 2V0L308 2H310Z"/>
<rect x="310" width="13.5849" height="2"/>
<path d="M323.585 2V0H325.585L323.585 2Z"/>
<path d="M662 2V0L660 2H662Z"/>
<rect x="662" width="13.5849" height="2"/>
<path d="M675.585 2V0H677.585L675.585 2Z"/>
<path d="M24 2V0L22 2H24Z"/>
<rect x="24" width="13.5849" height="2"/>
<path d="M37.585 2V0H39.585L37.585 2Z"/>
<path d="M376 2V0L374 2H376Z"/>
<rect x="376" width="13.5849" height="2"/>
<path d="M389.585 2V0H391.585L389.585 2Z"/>
<path d="M200 2V0L198 2H200Z"/>
<rect x="200" width="13.5849" height="2"/>
<path d="M213.585 2V0H215.585L213.585 2Z"/>
<path d="M552 2V0L550 2H552Z"/>
<rect x="552" width="13.5849" height="2"/>
<path d="M565.585 2V0H567.585L565.585 2Z"/>
<path d="M112 2V0L110 2H112Z"/>
<rect x="112" width="13.5849" height="2"/>
<path d="M125.585 2V0H127.585L125.585 2Z"/>
<path d="M464 2V0L462 2H464Z"/>
<rect x="464" width="13.5849" height="2"/>
<path d="M477.585 2V0H479.585L477.585 2Z"/>
<path d="M288 2V0L286 2H288Z"/>
<rect x="288" width="13.5849" height="2"/>
<path d="M301.585 2V0H303.585L301.585 2Z"/>
<path d="M640 2V0L638 2H640Z"/>
<rect x="640" width="13.5849" height="2"/>
<path d="M653.585 2V0H655.585L653.585 2Z"/>
<path d="M68 2V0L66 2H68Z"/>
<rect x="68" width="13.5849" height="2"/>
<path d="M81.585 2V0H83.585L81.585 2Z"/>
<path d="M420 2V0L418 2H420Z"/>
<rect x="420" width="13.5849" height="2"/>
<path d="M433.585 2V0H435.585L433.585 2Z"/>
<path d="M244 2V0L242 2H244Z"/>
<rect x="244" width="13.5849" height="2"/>
<path d="M257.585 2V0H259.585L257.585 2Z"/>
<path d="M596 2V0L594 2H596Z"/>
<rect x="596" width="13.5849" height="2"/>
<path d="M609.585 2V0H611.585L609.585 2Z"/>
<path d="M156 2V0L154 2H156Z"/>
<rect x="156" width="13.5849" height="2"/>
<path d="M169.585 2V0H171.585L169.585 2Z"/>
<path d="M508 2V0L506 2H508Z"/>
<rect x="508" width="13.5849" height="2"/>
<path d="M521.585 2V0H523.585L521.585 2Z"/>
<path d="M332 2V0L330 2H332Z"/>
<rect x="332" width="13.5849" height="2"/>
<path d="M345.585 2V0H347.585L345.585 2Z"/>
<path d="M684 2V0L682 2H684Z"/>
<rect x="684" width="13.5849" height="2"/>
<path d="M697.585 2V0H699.585L697.585 2Z"/>
<path d="M706 2V0L704 2H706Z"/>
<rect x="706" width="13.5849" height="2"/>
<path d="M719.585 2V0H721.585L719.585 2Z"/>
<path d="M1058 2V0L1056 2H1058Z"/>
<rect x="1058" width="13.5849" height="2"/>
<path d="M1071.58 2V0H1073.58L1071.58 2Z"/>
<path d="M882 2V0L880 2H882Z"/>
<rect x="882" width="13.5849" height="2"/>
<path d="M895.585 2V0H897.585L895.585 2Z"/>
<path d="M1234 2V0L1232 2H1234Z"/>
<rect x="1234" width="13.5849" height="2"/>
<path d="M1247.58 2V0H1249.58L1247.58 2Z"/>
<path d="M1454 2V0L1452 2H1454Z"/>
<rect x="1454" width="13.5849" height="2"/>
<path d="M1467.58 2V0H1469.58L1467.58 2Z"/>
<path d="M794 2V0L792 2H794Z"/>
<rect x="794" width="13.5849" height="2"/>
<path d="M807.585 2V0H809.585L807.585 2Z"/>
<path d="M1146 2V0L1144 2H1146Z"/>
<rect x="1146" width="13.5849" height="2"/>
<path d="M1159.58 2V0H1161.58L1159.58 2Z"/>
<path d="M970 2V0L968 2H970Z"/>
<rect x="970" width="13.5849" height="2"/>
<path d="M983.585 2V0H985.585L983.585 2Z"/>
<path d="M1322 2V0L1320 2H1322Z"/>
<rect x="1322" width="13.5849" height="2"/>
<path d="M1335.58 2V0H1337.58L1335.58 2Z"/>
<path d="M1542 2V0L1540 2H1542Z"/>
<rect x="1542" width="13.5849" height="2"/>
<path d="M1555.58 2V0H1557.58L1555.58 2Z"/>
<path d="M750 2V0L748 2H750Z"/>
<rect x="750" width="13.5849" height="2"/>
<path d="M763.585 2V0H765.585L763.585 2Z"/>
<path d="M1102 2V0L1100 2H1102Z"/>
<rect x="1102" width="13.5849" height="2"/>
<path d="M1115.58 2V0H1117.58L1115.58 2Z"/>
<path d="M926 2V0L924 2H926Z"/>
<rect x="926" width="13.5849" height="2"/>
<path d="M939.585 2V0H941.585L939.585 2Z"/>
<path d="M1278 2V0L1276 2H1278Z"/>
<rect x="1278" width="13.5849" height="2"/>
<path d="M1291.58 2V0H1293.58L1291.58 2Z"/>
<path d="M1498 2V0L1496 2H1498Z"/>
<rect x="1498" width="13.5849" height="2"/>
<path d="M1511.58 2V0H1513.58L1511.58 2Z"/>
<path d="M838 2V0L836 2H838Z"/>
<rect x="838" width="13.5849" height="2"/>
<path d="M851.585 2V0H853.585L851.585 2Z"/>
<path d="M1190 2V0L1188 2H1190Z"/>
<rect x="1190" width="13.5849" height="2"/>
<path d="M1203.58 2V0H1205.58L1203.58 2Z"/>
<path d="M1410 2V0L1408 2H1410Z"/>
<rect x="1410" width="13.5849" height="2"/>
<path d="M1423.58 2V0H1425.58L1423.58 2Z"/>
<path d="M1014 2V0L1012 2H1014Z"/>
<rect x="1014" width="13.5849" height="2"/>
<path d="M1027.58 2V0H1029.58L1027.58 2Z"/>
<path d="M1366 2V0L1364 2H1366Z"/>
<rect x="1366" width="13.5849" height="2"/>
<path d="M1379.58 2V0H1381.58L1379.58 2Z"/>
<path d="M1586 2V0L1584 2H1586Z"/>
<rect x="1586" width="13.5849" height="2"/>
<path d="M1599.58 2V0H1601.58L1599.58 2Z"/>
<path d="M728 2V0L726 2H728Z"/>
<rect x="728" width="13.5849" height="2"/>
<path d="M741.585 2V0H743.585L741.585 2Z"/>
<path d="M1080 2V0L1078 2H1080Z"/>
<rect x="1080" width="13.5849" height="2"/>
<path d="M1093.58 2V0H1095.58L1093.58 2Z"/>
<path d="M904 2V0L902 2H904Z"/>
<rect x="904" width="13.5849" height="2"/>
<path d="M917.585 2V0H919.585L917.585 2Z"/>
<path d="M1256 2V0L1254 2H1256Z"/>
<rect x="1256" width="13.5849" height="2"/>
<path d="M1269.58 2V0H1271.58L1269.58 2Z"/>
<path d="M1476 2V0L1474 2H1476Z"/>
<rect x="1476" width="13.5849" height="2"/>
<path d="M1489.58 2V0H1491.58L1489.58 2Z"/>
<path d="M816 2V0L814 2H816Z"/>
<rect x="816" width="13.5849" height="2"/>
<path d="M829.585 2V0H831.585L829.585 2Z"/>
<path d="M1168 2V0L1166 2H1168Z"/>
<rect x="1168" width="13.5849" height="2"/>
<path d="M1181.58 2V0H1183.58L1181.58 2Z"/>
<path d="M992 2V0L990 2H992Z"/>
<rect x="992" width="13.5849" height="2"/>
<path d="M1005.58 2V0H1007.58L1005.58 2Z"/>
<path d="M1344 2V0L1342 2H1344Z"/>
<rect x="1344" width="13.5849" height="2"/>
<path d="M1357.58 2V0H1359.58L1357.58 2Z"/>
<path d="M1564 2V0L1562 2H1564Z"/>
<rect x="1564" width="13.5849" height="2"/>
<path d="M1577.58 2V0H1579.58L1577.58 2Z"/>
<path d="M772 2V0L770 2H772Z"/>
<rect x="772" width="13.5849" height="2"/>
<path d="M785.585 2V0H787.585L785.585 2Z"/>
<path d="M1124 2V0L1122 2H1124Z"/>
<rect x="1124" width="13.5849" height="2"/>
<path d="M1137.58 2V0H1139.58L1137.58 2Z"/>
<path d="M948 2V0L946 2H948Z"/>
<rect x="948" width="13.5849" height="2"/>
<path d="M961.585 2V0H963.585L961.585 2Z"/>
<path d="M1300 2V0L1298 2H1300Z"/>
<rect x="1300" width="13.5849" height="2"/>
<path d="M1313.58 2V0H1315.58L1313.58 2Z"/>
<path d="M1520 2V0L1518 2H1520Z"/>
<rect x="1520" width="13.5849" height="2"/>
<path d="M1533.58 2V0H1535.58L1533.58 2Z"/>
<path d="M860 2V0L858 2H860Z"/>
<rect x="860" width="13.5849" height="2"/>
<path d="M873.585 2V0H875.585L873.585 2Z"/>
<path d="M1212 2V0L1210 2H1212Z"/>
<rect x="1212" width="13.5849" height="2"/>
<path d="M1225.58 2V0H1227.58L1225.58 2Z"/>
<path d="M1432 2V0L1430 2H1432Z"/>
<rect x="1432" width="13.5849" height="2"/>
<path d="M1445.58 2V0H1447.58L1445.58 2Z"/>
<path d="M1036 2V0L1034 2H1036Z"/>
<rect x="1036" width="13.5849" height="2"/>
<path d="M1049.58 2V0H1051.58L1049.58 2Z"/>
<path d="M1388 2V0L1386 2H1388Z"/>
<rect x="1388" width="13.5849" height="2"/>
<path d="M1401.58 2V0H1403.58L1401.58 2Z"/>
<path d="M1608 2V0L1606 2H1608Z"/>
<rect x="1608" width="13.5849" height="2"/>
<path d="M1621.58 2V0H1623.58L1621.58 2Z"/>
</svg>
