<svg width="12" height="12" viewBox="0 0 12 12" fill="none" xmlns="http://www.w3.org/2000/svg">
<path d="M2.15039 11.5252C1.82154 11.5252 1.54141 11.4095 1.31 11.1781C1.07859 10.9467 0.962891 10.6666 0.962891 10.3377V2.9127H2.15039V10.3377H7.96289V11.5252H2.15039ZM4.07539 9.5877C3.74997 9.5877 3.47279 9.47322 3.24383 9.24426C3.01487 9.0153 2.90039 8.73811 2.90039 8.4127V1.6377C2.90039 1.30884 3.01487 1.02871 3.24383 0.797308C3.47279 0.565899 3.74997 0.450195 4.07539 0.450195H9.35039C9.67925 0.450195 9.95938 0.565899 10.1908 0.797308C10.4222 1.02871 10.5379 1.30884 10.5379 1.6377V8.4127C10.5379 8.73811 10.4222 9.0153 10.1908 9.24426C9.95938 9.47322 9.67925 9.5877 9.35039 9.5877H4.07539ZM4.07539 8.4127H9.35039V1.6377H4.07539V8.4127Z"/>
</svg>
