<svg width="14" height="14" viewBox="0 0 14 14" fill="none" xmlns="http://www.w3.org/2000/svg">
  <path d="M6.58683 0.345947C6.09558 0.803694 5.70157 1.3557 5.42829 1.96903C5.15501 2.58236 5.00806 3.24444 4.99622 3.9158C4.98437 4.58715 5.10787 5.25401 5.35935 5.8766C5.61082 6.49919 5.98512 7.06474 6.45991 7.53954C6.9347 8.01433 7.50026 8.38862 8.12285 8.6401C8.74543 8.89157 9.41229 9.01507 10.0836 9.00322C10.755 8.99138 11.4171 8.84443 12.0304 8.57115C12.6437 8.29787 13.1957 7.90386 13.6535 7.41261C13.4415 10.9026 10.5442 13.6666 7.00083 13.6666C3.31816 13.6666 0.333496 10.6819 0.333496 6.99995C0.333496 3.45661 3.0975 0.559281 6.58683 0.345947Z"></path>
</svg>