<svg viewBox="0 0 55 60" fill="none" xmlns="http://www.w3.org/2000/svg">
<mask id="mask0_688_43816" style="mask-type:luminance" maskUnits="userSpaceOnUse" x="0" y="0" width="55" height="60">
<path d="M54.1222 37.2976C52.9879 35.2834 52.1906 33.1324 51.5705 30.9188C50.6088 27.4876 50.7531 24.0126 51.2362 20.5278C51.5531 18.2409 51.9034 15.9558 52.1097 13.6582C52.3828 10.6097 52.3892 7.55217 51.9673 4.50894C51.8075 3.35211 51.5417 2.21851 51.0038 1.17075C50.475 0.140851 49.6791 -0.218573 48.5749 0.128303C47.9104 0.337365 47.2663 0.606074 46.6506 0.931118C44.167 2.24352 42.0436 4.03959 40.0499 5.98318C38.7293 7.27144 37.5001 8.65358 36.2304 9.99371C36.0886 10.143 35.9817 10.2985 35.7061 10.2368C34.7552 10.0241 33.8034 9.80418 32.8399 9.66471C30.3653 9.3071 27.879 9.14171 25.3738 9.29278C23.0608 9.43226 20.7685 9.67275 18.5309 10.3084C18.4438 10.3334 18.2975 10.2896 18.231 10.2253C17.8835 9.8846 17.5432 9.53505 17.2173 9.17476C14.8217 6.53032 12.2536 4.07628 9.33004 2.00575C8.28219 1.26372 7.18229 0.628977 5.96293 0.211453C4.94558 -0.137241 4.09706 0.0862962 3.48918 0.898931C3.27547 1.18416 3.09862 1.50776 2.96482 1.83768C2.34256 3.3673 2.0642 4.9792 2.0247 6.61702C1.9789 8.49892 2.01844 10.3835 2.05703 12.2663C2.11538 15.069 2.56705 17.8306 2.98907 20.5948C3.34191 22.9032 3.50982 25.2302 3.29794 27.5565C3.03035 30.4861 2.10374 33.2477 0.899631 35.9199C0.638342 36.5001 0.33034 37.0589 0.0448036 37.6283C-0.0404965 37.7991 -0.0117286 37.8885 0.198371 37.9502C1.58742 38.3596 2.97916 38.7602 4.36373 39.1831C7.31695 39.8777 11.7023 41.0836 12.4781 41.3341C13.6589 41.7147 14.52 42.3193 14.4014 42.6839C14.2829 43.0485 13.2297 43.0344 12.0489 42.6535C11.2606 42.3989 6.8231 40.8933 3.99829 39.8124C4.21113 40.1969 4.41671 40.5875 4.67174 40.9423C6.08056 42.903 7.50194 44.8547 8.935 46.7982C9.31748 47.3165 9.74312 47.8048 10.1732 48.2848C10.2163 48.3321 10.2612 48.3799 10.3088 48.4217L13.0124 47.3183L14.0863 47.4097L13.3778 48.1712L11.0163 48.9581C11.0567 49.0154 11.107 49.0795 11.1681 49.1559C12.4153 50.7034 13.6634 52.251 14.9492 53.7671C16.4666 55.557 18.3379 56.8935 20.4892 57.8328C23.4559 59.1285 26.5636 59.384 29.735 58.953C33.0285 58.5061 35.9224 57.1399 38.2597 54.7914C39.7052 53.3389 40.9491 51.6877 42.3021 50.142C42.6217 49.7769 42.8756 49.3578 43.1902 48.9868L41.1947 48.3217L40.8554 47.9571C40.844 47.9534 40.8322 47.9498 40.8207 47.9462C40.7162 47.9121 40.6527 47.7584 40.5719 47.6529L40.4856 47.5606L40.8294 47.5311C40.8997 47.5052 40.9678 47.4893 41.0271 47.5052C41.0349 47.507 41.044 47.5106 41.0523 47.5124L41.5596 47.4697L43.8382 48.3994C43.8464 48.394 43.8546 48.3885 43.8624 48.3835C44.1958 48.173 44.5127 47.8934 44.7469 47.5788C46.2625 45.5394 47.7612 43.4877 49.2494 41.4278C49.6658 40.8512 50.0645 40.2594 50.4389 39.6533C47.6562 40.8423 43.3761 42.4875 42.6076 42.7698C41.4427 43.1972 40.3915 43.2526 40.2577 42.893C40.1248 42.5339 40.9605 41.8965 42.1254 41.4683C43.1756 41.0818 50.9677 38.6234 52.5742 38.4115C53.0137 38.2705 53.4511 38.1227 53.8861 37.9681C54.3843 37.7884 54.3797 37.7562 54.1222 37.2976ZM10.8745 45.4812C9.68563 45.3607 8.75541 44.9325 8.79669 44.5247C8.83801 44.1169 9.8365 43.8846 11.0253 44.0055C12.2141 44.126 13.1444 44.5542 13.1031 44.962C13.0618 45.3694 12.0642 45.6021 10.8745 45.4812ZM5.91265 16.5861C5.74561 16.7953 5.54899 16.9812 5.36583 17.1761C5.35505 17.1869 5.33619 17.1895 5.27153 17.2173C5.2024 16.5816 5.13326 15.9693 5.07038 15.3568C4.74895 12.2099 4.77676 9.05319 4.82617 5.89826C4.84056 4.99707 4.95545 4.09683 5.02011 3.19568C5.03988 2.92208 5.16198 2.86039 5.41967 2.94713C6.56989 3.33424 7.55043 3.99667 8.47704 4.75925C10.2953 6.25587 12.0265 7.83913 13.4981 9.68525C13.9534 10.2565 13.9399 10.2395 13.3365 10.5963C10.5692 12.2323 7.94551 14.0463 5.91265 16.5861ZM17.7416 35.9414C17.3322 35.6723 16.9245 35.4014 16.5223 35.1233C16.1164 34.8498 15.7196 34.5646 15.32 34.2821C14.9204 34.0005 14.5298 33.7063 14.1339 33.4194L12.9639 32.5352C12.1926 31.9344 11.4249 31.3283 10.6769 30.6971C9.92536 30.0695 9.1873 29.4249 8.46626 28.7571L8.21128 28.5211L8.23283 28.294C8.26333 27.9793 8.30557 27.6646 8.34147 27.35C8.38457 27.0353 8.42316 26.7206 8.47165 26.4059C8.51773 26.0905 8.56862 25.7757 8.62431 25.4618C8.65125 25.3045 8.6818 25.1471 8.71408 24.9898C8.74554 24.8324 8.77605 24.6751 8.81285 24.5178C8.8497 24.6751 8.88021 24.8324 8.91163 24.9898C8.94372 25.1467 8.97367 25.3041 9.00144 25.4618C9.05714 25.7757 9.10802 26.0904 9.15405 26.4059C9.20346 26.7206 9.24205 27.0353 9.28429 27.35C9.30671 27.5493 9.33096 27.7478 9.35429 27.9471C10.1346 28.4111 10.8996 28.8948 11.6547 29.3927C12.4745 29.9283 13.2754 30.4906 14.0728 31.0565L15.2553 31.9237C15.6441 32.2205 16.0374 32.5102 16.4217 32.8123C16.7935 33.1038 17.167 33.3926 17.5325 33.6911L17.5351 33.6616C17.5813 33.1148 17.6364 32.5688 17.7004 32.0238C17.7623 31.4785 17.8377 30.9322 17.9203 30.386C18.0047 29.8406 18.1026 29.2944 18.2229 28.7482C18.3433 29.2944 18.4411 29.8398 18.5255 30.386C18.6081 30.9314 18.6835 31.4776 18.7455 32.0238C18.8095 32.5688 18.8646 33.1148 18.9107 33.6616C18.9358 33.9343 18.9574 34.2073 18.9754 34.4805C18.9942 34.7532 19.0167 35.0259 19.0301 35.2995L19.1056 36.8399L17.7416 35.9414ZM43.5455 44.1564C44.7346 44.0355 45.7328 44.2683 45.7744 44.6756C45.8154 45.0834 44.8862 45.5117 43.6967 45.6326C42.5076 45.7531 41.5093 45.5207 41.4678 45.1129C41.4267 44.7052 42.3569 44.2769 43.5455 44.1564ZM33.0375 49.5187L33.0339 49.896L32.6406 50.1838C31.9259 50.7066 31.1932 51.2012 30.4452 51.6713C29.6973 52.1418 28.9323 52.5869 28.1484 53.0015L27.3825 53.4075L27.3735 53.6366L27.1616 53.5248L26.9443 53.6398L26.9344 53.4048L26.1676 52.9997C25.384 52.5862 24.6163 52.1434 23.8663 51.6722C23.1165 51.2031 22.3829 50.7093 21.6664 50.1874L21.2731 49.9006L21.2686 49.5241C21.2632 49.0777 21.2641 48.6308 21.2803 48.183C21.2848 47.9593 21.2938 47.7352 21.3063 47.5106C21.3162 47.2865 21.3315 47.0619 21.3485 46.8373C21.3818 46.3877 21.4275 45.9381 21.4886 45.4867C21.5506 45.0352 21.6224 44.5829 21.7328 44.1278C21.9106 44.5615 22.0489 44.9975 22.1782 45.4348C22.3057 45.8722 22.4188 46.31 22.5185 46.75C22.5688 46.9701 22.6182 47.1888 22.6613 47.4097C22.7079 47.6297 22.7502 47.8498 22.7879 48.0703C22.8409 48.3521 22.8866 48.6344 22.9289 48.9172C23.5906 49.2923 24.2389 49.6878 24.8764 50.1015C25.2951 50.3736 25.7079 50.6544 26.1146 50.9439C26.1881 50.676 26.2669 50.4096 26.3508 50.1447C26.4599 49.8001 26.5787 49.4587 26.7072 49.1209C26.8401 48.7813 26.9775 48.4431 27.149 48.1089C27.1499 48.1116 27.1499 48.1144 27.1508 48.1171C27.1508 48.1153 27.1517 48.1144 27.1517 48.1125C27.3241 48.4467 27.4624 48.7845 27.5962 49.1236C27.7273 49.4632 27.8458 49.8037 27.9562 50.1461C28.0415 50.4116 28.1197 50.6789 28.1942 50.9462C28.6003 50.6567 29.0122 50.3754 29.4297 50.1024C30.0653 49.6877 30.7132 49.2922 31.3728 48.9163C31.4149 48.6335 31.459 48.3521 31.5119 48.0703C31.5497 47.8498 31.5909 47.6297 31.6367 47.4097C31.6789 47.1897 31.7274 46.9701 31.7777 46.75C31.8766 46.3081 31.9889 45.8692 32.1144 45.4339C32.2419 44.9966 32.3793 44.5597 32.5562 44.126C32.6684 44.581 32.7412 45.0325 32.804 45.4839C32.8655 45.9325 32.9134 46.3827 32.9477 46.8342C32.9656 47.0583 32.9818 47.2829 32.9917 47.507C33.0051 47.7316 33.015 47.9552 33.0204 48.1794C33.0402 48.6254 33.042 49.0727 33.0375 49.5187ZM45.8246 28.7545C45.1035 29.4223 44.3647 30.066 43.614 30.6944C42.866 31.3265 42.0984 31.9326 41.3281 32.5334L40.1595 33.4194C39.7645 33.7072 39.3732 33.9996 38.9746 34.283C38.1771 34.8498 37.3744 35.4085 36.5537 35.9432L35.1826 36.8354L35.2589 35.2977C35.2724 35.025 35.2939 34.7523 35.3137 34.4788C35.3325 34.2061 35.3532 33.9325 35.3783 33.6599C35.4245 33.1131 35.4796 32.5671 35.5435 32.0221C35.6055 31.4767 35.6809 30.9305 35.7644 30.3842C35.8497 29.8389 35.9476 29.2926 36.0688 28.7464C36.19 29.2926 36.2879 29.838 36.3732 30.3842C36.4567 30.9296 36.5312 31.4758 36.5941 32.0221C36.6581 32.5671 36.7132 33.1131 36.7593 33.6599C36.7602 33.6679 36.7602 33.676 36.7611 33.684C37.1281 33.39 37.4972 33.0986 37.8682 32.8096C38.2543 32.5093 38.6467 32.2178 39.0353 31.9219L40.2198 31.0565C41.0171 30.4906 41.818 29.9292 42.6386 29.3937C43.3939 28.8957 44.1597 28.412 44.9401 27.9481C44.9634 27.7487 44.9876 27.5493 45.0099 27.349C45.0533 27.0344 45.0917 26.7197 45.1405 26.405C45.1862 26.0903 45.2373 25.7756 45.2931 25.4609C45.32 25.3036 45.3497 25.1462 45.3821 24.9889C45.4131 24.8315 45.4428 24.6742 45.4798 24.5168C45.5164 24.6742 45.5469 24.8315 45.5775 24.9889C45.61 25.1462 45.6396 25.3036 45.6666 25.4609C45.7223 25.7748 45.7732 26.0895 45.8191 26.405C45.8675 26.7197 45.9063 27.0344 45.9492 27.349C45.9853 27.6637 46.0264 27.9784 46.0579 28.2931L46.0803 28.5184L45.8246 28.7545ZM49.1119 16.4502C49.0955 16.5915 49.0795 16.7336 49.0471 16.8722C49.0274 16.9562 48.9763 17.0322 48.9393 17.1118C48.8731 17.0662 48.7941 17.0313 48.742 16.9741C48.3119 16.503 47.89 16.0247 47.4598 15.5544C45.5077 13.4249 43.2035 11.7629 40.6276 10.4648C40.3376 10.3182 40.2773 10.1931 40.4947 9.92666C42.4395 7.53785 44.6465 5.42441 47.1895 3.67485C47.6753 3.34047 48.2461 3.12948 48.7795 2.86398C48.9781 2.76474 49.1046 2.82107 49.1325 3.04815C49.2274 3.81969 49.3535 4.58941 49.4055 5.36454C49.4772 6.4248 49.4923 7.48957 49.5211 8.25574C49.5357 11.1935 49.4115 13.8263 49.1119 16.4502Z" fill="#FFE9E9"/>
</mask>
<g mask="url(#mask0_688_43816)">
<path d="M54.1222 37.2976C52.9879 35.2834 52.1906 33.1324 51.5705 30.9188C50.6088 27.4876 50.7531 24.0126 51.2362 20.5278C51.5531 18.2409 51.9034 15.9558 52.1097 13.6582C52.3828 10.6097 52.3892 7.55217 51.9673 4.50894C51.8075 3.35211 51.5417 2.21851 51.0038 1.17075C50.475 0.140851 49.6791 -0.218573 48.5749 0.128303C47.9104 0.337365 47.2663 0.606074 46.6506 0.931118C44.167 2.24352 42.0436 4.03959 40.0499 5.98318C38.7293 7.27144 37.5001 8.65358 36.2304 9.99371C36.0886 10.143 35.9817 10.2985 35.7061 10.2368C34.7552 10.0241 33.8034 9.80418 32.8399 9.66471C30.3653 9.3071 27.879 9.14171 25.3738 9.29278C23.0608 9.43226 20.7685 9.67275 18.5309 10.3084C18.4438 10.3334 18.2975 10.2896 18.231 10.2253C17.8835 9.8846 17.5432 9.53505 17.2173 9.17476C14.8217 6.53032 12.2536 4.07628 9.33004 2.00575C8.28219 1.26372 7.18229 0.628977 5.96293 0.211453C4.94558 -0.137241 4.09706 0.0862962 3.48918 0.898931C3.27547 1.18416 3.09862 1.50776 2.96482 1.83768C2.34256 3.3673 2.0642 4.9792 2.0247 6.61702C1.9789 8.49892 2.01844 10.3835 2.05703 12.2663C2.11538 15.069 2.56705 17.8306 2.98907 20.5948C3.34191 22.9032 3.50982 25.2302 3.29794 27.5565C3.03035 30.4861 2.10374 33.2477 0.899631 35.9199C0.638342 36.5001 0.33034 37.0589 0.0448036 37.6283C-0.0404965 37.7991 -0.0117286 37.8885 0.198371 37.9502C1.58742 38.3596 2.97916 38.7602 4.36373 39.1831C7.31695 39.8777 11.7023 41.0836 12.4781 41.3341C13.6589 41.7147 14.52 42.3193 14.4014 42.6839C14.2829 43.0485 13.2297 43.0344 12.0489 42.6535C11.2606 42.3989 6.8231 40.8933 3.99829 39.8124C4.21113 40.1969 4.41671 40.5875 4.67174 40.9423C6.08056 42.903 7.50194 44.8547 8.935 46.7982C9.31748 47.3165 9.74312 47.8048 10.1732 48.2848C10.2163 48.3321 10.2612 48.3799 10.3088 48.4217L13.0124 47.3183L14.0863 47.4097L13.3778 48.1712L11.0163 48.9581C11.0567 49.0154 11.107 49.0795 11.1681 49.1559C12.4153 50.7034 13.6634 52.251 14.9492 53.7671C16.4666 55.557 18.3379 56.8935 20.4892 57.8328C23.4559 59.1285 26.5636 59.384 29.735 58.953C33.0285 58.5061 35.9224 57.1399 38.2597 54.7914C39.7052 53.3389 40.9491 51.6877 42.3021 50.142C42.6217 49.7769 42.8756 49.3578 43.1902 48.9868L41.1947 48.3217L40.8554 47.9571C40.844 47.9534 40.8322 47.9498 40.8207 47.9462C40.7162 47.9121 40.6527 47.7584 40.5719 47.6529L40.4856 47.5606L40.8294 47.5311C40.8997 47.5052 40.9678 47.4893 41.0271 47.5052C41.0349 47.507 41.044 47.5106 41.0523 47.5124L41.5596 47.4697L43.8382 48.3994C43.8464 48.394 43.8546 48.3885 43.8624 48.3835C44.1958 48.173 44.5127 47.8934 44.7469 47.5788C46.2625 45.5394 47.7612 43.4877 49.2494 41.4278C49.6658 40.8512 50.0645 40.2594 50.4389 39.6533C47.6562 40.8423 43.3761 42.4875 42.6076 42.7698C41.4427 43.1972 40.3915 43.2526 40.2577 42.893C40.1248 42.5339 40.9605 41.8965 42.1254 41.4683C43.1756 41.0818 50.9677 38.6234 52.5742 38.4115C53.0137 38.2705 53.4511 38.1227 53.8861 37.9681C54.3843 37.7884 54.3797 37.7562 54.1222 37.2976ZM10.8745 45.4812C9.68563 45.3607 8.75541 44.9325 8.79669 44.5247C8.83801 44.1169 9.8365 43.8846 11.0253 44.0055C12.2141 44.126 13.1444 44.5542 13.1031 44.962C13.0618 45.3694 12.0642 45.6021 10.8745 45.4812ZM5.91265 16.5861C5.74561 16.7953 5.54899 16.9812 5.36583 17.1761C5.35505 17.1869 5.33619 17.1895 5.27153 17.2173C5.2024 16.5816 5.13326 15.9693 5.07038 15.3568C4.74895 12.2099 4.77676 9.05319 4.82617 5.89826C4.84056 4.99707 4.95545 4.09683 5.02011 3.19568C5.03988 2.92208 5.16198 2.86039 5.41967 2.94713C6.56989 3.33424 7.55043 3.99667 8.47704 4.75925C10.2953 6.25587 12.0265 7.83913 13.4981 9.68525C13.9534 10.2565 13.9399 10.2395 13.3365 10.5963C10.5692 12.2323 7.94551 14.0463 5.91265 16.5861ZM17.7416 35.9414C17.3322 35.6723 16.9245 35.4014 16.5223 35.1233C16.1164 34.8498 15.7196 34.5646 15.32 34.2821C14.9204 34.0005 14.5298 33.7063 14.1339 33.4194L12.9639 32.5352C12.1926 31.9344 11.4249 31.3283 10.6769 30.6971C9.92536 30.0695 9.1873 29.4249 8.46626 28.7571L8.21128 28.5211L8.23283 28.294C8.26333 27.9793 8.30557 27.6646 8.34147 27.35C8.38457 27.0353 8.42316 26.7206 8.47165 26.4059C8.51773 26.0905 8.56862 25.7757 8.62431 25.4618C8.65125 25.3045 8.6818 25.1471 8.71408 24.9898C8.74554 24.8324 8.77605 24.6751 8.81285 24.5178C8.8497 24.6751 8.88021 24.8324 8.91163 24.9898C8.94372 25.1467 8.97367 25.3041 9.00144 25.4618C9.05714 25.7757 9.10802 26.0904 9.15405 26.4059C9.20346 26.7206 9.24205 27.0353 9.28429 27.35C9.30671 27.5493 9.33096 27.7478 9.35429 27.9471C10.1346 28.4111 10.8996 28.8948 11.6547 29.3927C12.4745 29.9283 13.2754 30.4906 14.0728 31.0565L15.2553 31.9237C15.6441 32.2205 16.0374 32.5102 16.4217 32.8123C16.7935 33.1038 17.167 33.3926 17.5325 33.6911L17.5351 33.6616C17.5813 33.1148 17.6364 32.5688 17.7004 32.0238C17.7623 31.4785 17.8377 30.9322 17.9203 30.386C18.0047 29.8406 18.1026 29.2944 18.2229 28.7482C18.3433 29.2944 18.4411 29.8398 18.5255 30.386C18.6081 30.9314 18.6835 31.4776 18.7455 32.0238C18.8095 32.5688 18.8646 33.1148 18.9107 33.6616C18.9358 33.9343 18.9574 34.2073 18.9754 34.4805C18.9942 34.7532 19.0167 35.0259 19.0301 35.2995L19.1056 36.8399L17.7416 35.9414ZM43.5455 44.1564C44.7346 44.0355 45.7328 44.2683 45.7744 44.6756C45.8154 45.0834 44.8862 45.5117 43.6967 45.6326C42.5076 45.7531 41.5093 45.5207 41.4678 45.1129C41.4267 44.7052 42.3569 44.2769 43.5455 44.1564ZM33.0375 49.5187L33.0339 49.896L32.6406 50.1838C31.9259 50.7066 31.1932 51.2012 30.4452 51.6713C29.6973 52.1418 28.9323 52.5869 28.1484 53.0015L27.3825 53.4075L27.3735 53.6366L27.1616 53.5248L26.9443 53.6398L26.9344 53.4048L26.1676 52.9997C25.384 52.5862 24.6163 52.1434 23.8663 51.6722C23.1165 51.2031 22.3829 50.7093 21.6664 50.1874L21.2731 49.9006L21.2686 49.5241C21.2632 49.0777 21.2641 48.6308 21.2803 48.183C21.2848 47.9593 21.2938 47.7352 21.3063 47.5106C21.3162 47.2865 21.3315 47.0619 21.3485 46.8373C21.3818 46.3877 21.4275 45.9381 21.4886 45.4867C21.5506 45.0352 21.6224 44.5829 21.7328 44.1278C21.9106 44.5615 22.0489 44.9975 22.1782 45.4348C22.3057 45.8722 22.4188 46.31 22.5185 46.75C22.5688 46.9701 22.6182 47.1888 22.6613 47.4097C22.7079 47.6297 22.7502 47.8498 22.7879 48.0703C22.8409 48.3521 22.8866 48.6344 22.9289 48.9172C23.5906 49.2923 24.2389 49.6878 24.8764 50.1015C25.2951 50.3736 25.7079 50.6544 26.1146 50.9439C26.1881 50.676 26.2669 50.4096 26.3508 50.1447C26.4599 49.8001 26.5787 49.4587 26.7072 49.1209C26.8401 48.7813 26.9775 48.4431 27.149 48.1089C27.1499 48.1116 27.1499 48.1144 27.1508 48.1171C27.1508 48.1153 27.1517 48.1144 27.1517 48.1125C27.3241 48.4467 27.4624 48.7845 27.5962 49.1236C27.7273 49.4632 27.8458 49.8037 27.9562 50.1461C28.0415 50.4116 28.1197 50.6789 28.1942 50.9462C28.6003 50.6567 29.0122 50.3754 29.4297 50.1024C30.0653 49.6877 30.7132 49.2922 31.3728 48.9163C31.4149 48.6335 31.459 48.3521 31.5119 48.0703C31.5497 47.8498 31.5909 47.6297 31.6367 47.4097C31.6789 47.1897 31.7274 46.9701 31.7777 46.75C31.8766 46.3081 31.9889 45.8692 32.1144 45.4339C32.2419 44.9966 32.3793 44.5597 32.5562 44.126C32.6684 44.581 32.7412 45.0325 32.804 45.4839C32.8655 45.9325 32.9134 46.3827 32.9477 46.8342C32.9656 47.0583 32.9818 47.2829 32.9917 47.507C33.0051 47.7316 33.015 47.9552 33.0204 48.1794C33.0402 48.6254 33.042 49.0727 33.0375 49.5187ZM45.8246 28.7545C45.1035 29.4223 44.3647 30.066 43.614 30.6944C42.866 31.3265 42.0984 31.9326 41.3281 32.5334L40.1595 33.4194C39.7645 33.7072 39.3732 33.9996 38.9746 34.283C38.1771 34.8498 37.3744 35.4085 36.5537 35.9432L35.1826 36.8354L35.2589 35.2977C35.2724 35.025 35.2939 34.7523 35.3137 34.4788C35.3325 34.2061 35.3532 33.9325 35.3783 33.6599C35.4245 33.1131 35.4796 32.5671 35.5435 32.0221C35.6055 31.4767 35.6809 30.9305 35.7644 30.3842C35.8497 29.8389 35.9476 29.2926 36.0688 28.7464C36.19 29.2926 36.2879 29.838 36.3732 30.3842C36.4567 30.9296 36.5312 31.4758 36.5941 32.0221C36.6581 32.5671 36.7132 33.1131 36.7593 33.6599C36.7602 33.6679 36.7602 33.676 36.7611 33.684C37.1281 33.39 37.4972 33.0986 37.8682 32.8096C38.2543 32.5093 38.6467 32.2178 39.0353 31.9219L40.2198 31.0565C41.0171 30.4906 41.818 29.9292 42.6386 29.3937C43.3939 28.8957 44.1597 28.412 44.9401 27.9481C44.9634 27.7487 44.9876 27.5493 45.0099 27.349C45.0533 27.0344 45.0917 26.7197 45.1405 26.405C45.1862 26.0903 45.2373 25.7756 45.2931 25.4609C45.32 25.3036 45.3497 25.1462 45.3821 24.9889C45.4131 24.8315 45.4428 24.6742 45.4798 24.5168C45.5164 24.6742 45.5469 24.8315 45.5775 24.9889C45.61 25.1462 45.6396 25.3036 45.6666 25.4609C45.7223 25.7748 45.7732 26.0895 45.8191 26.405C45.8675 26.7197 45.9063 27.0344 45.9492 27.349C45.9853 27.6637 46.0264 27.9784 46.0579 28.2931L46.0803 28.5184L45.8246 28.7545ZM49.1119 16.4502C49.0955 16.5915 49.0795 16.7336 49.0471 16.8722C49.0274 16.9562 48.9763 17.0322 48.9393 17.1118C48.8731 17.0662 48.7941 17.0313 48.742 16.9741C48.3119 16.503 47.89 16.0247 47.4598 15.5544C45.5077 13.4249 43.2035 11.7629 40.6276 10.4648C40.3376 10.3182 40.2773 10.1931 40.4947 9.92666C42.4395 7.53785 44.6465 5.42441 47.1895 3.67485C47.6753 3.34047 48.2461 3.12948 48.7795 2.86398C48.9781 2.76474 49.1046 2.82107 49.1325 3.04815C49.2274 3.81969 49.3535 4.58941 49.4055 5.36454C49.4772 6.4248 49.4923 7.48957 49.5211 8.25574C49.5357 11.1935 49.4115 13.8263 49.1119 16.4502Z"/>
</g>
</svg>
