<svg width="27" height="22" viewBox="0 0 27 22" fill="none" xmlns="http://www.w3.org/2000/svg">
<path fill-rule="evenodd" clip-rule="evenodd" d="M13.7987 12.1084C11.5329 12.1084 9.69531 10.3003 9.69531 8.06788C9.69531 5.83545 11.5329 4.02734 13.7987 4.02734C16.0645 4.02734 17.9021 5.83545 17.9021 8.06788C17.9021 10.3003 16.0645 12.1084 13.7987 12.1084ZM12.0146 8.06788C12.0146 9.03851 12.8139 9.82464 13.7987 9.82464C14.7835 9.82464 15.5828 9.03851 15.5828 8.06788C15.5828 7.09726 14.7835 6.31113 13.7987 6.31113C12.8139 6.31113 12.0146 7.09726 12.0146 8.06788Z" fill="#04CD58"/>
<path fill-rule="evenodd" clip-rule="evenodd" d="M0.595703 8.07296L8.44566 0.337891H19.1501L27.0001 8.07296L13.7979 21.0676L0.595703 8.07296ZM19.8638 5.25677C16.5275 1.95804 11.0683 1.95806 7.73203 5.25679L4.8775 8.06764L7.73203 10.8785C11.0683 14.1772 16.5275 14.1772 19.8638 10.8784L22.7183 8.06764L19.8638 5.25677Z" fill="#04CD58"/>
</svg>
