<svg width="494" height="498" viewBox="0 0 494 498" fill="none" xmlns="http://www.w3.org/2000/svg">
<path d="M345.328 5.9601C346.974 5.9601 348.308 4.62588 348.308 2.98005C348.308 1.33422 346.974 0 345.328 0C343.682 0 342.348 1.33422 342.348 2.98005C342.348 4.62588 343.682 5.9601 345.328 5.9601Z" fill="#0163C2"/>
<path d="M324.937 5.9601C326.584 5.9601 327.917 4.6271 327.917 2.98005C327.917 1.333 326.584 0 324.937 0C323.29 0 321.957 1.333 321.957 2.98005C321.957 4.6271 323.29 5.9601 324.937 5.9601Z" fill="#0163C2"/>
<path d="M365.539 5.9601C367.184 5.9601 368.519 4.62588 368.519 2.98005C368.519 1.33422 367.184 0 365.539 0C363.893 0 362.559 1.33422 362.559 2.98005C362.559 4.62588 363.893 5.9601 365.539 5.9601Z" fill="#0163C2"/>
<path d="M467.293 61.4443L426.814 20.1705L163.029 20.1705V17.1904H142.182V20.1705L122.446 20.1705V17.1904L101.551 17.1904V20.1705L81.8978 20.1705V17.1904L60.9747 17.1904V20.1705L20.7338 20.1705L20.4199 418.709L81.7933 479.454L385.576 479.475V482.462H406.422V479.475H425.991V482.462H446.837V479.482H467.607L467.544 459.368H470.58V438.501H467.481L467.293 61.4443ZM446.837 473.515V470.535H425.991V473.515H406.422V470.535H385.576V473.508L84.2499 473.487L26.4009 416.224L26.6799 26.1236L60.9817 26.1236V29.1036L81.9048 29.1036V26.1236L101.558 26.1236V29.1036H122.453V26.1236L142.189 26.1236V29.1036H163.036V26.1236L424.309 26.1236L461.34 63.88L461.521 438.487H458.66V459.355H461.591L461.633 473.501H446.844L446.837 473.515Z" fill="#0163C2"/>
<path d="M493.514 60.0125L439.629 0.0767589L385.569 0L385.562 5.96709L436.97 6.03686L487.554 62.3016L487.589 102.305H493.556L493.514 60.0125Z" fill="#0163C2"/>
<path d="M6.14851 424.337L5.96705 375.17L0 375.191L0.195413 426.801L70.7113 497.679L122.44 497.756L122.454 491.789L73.1889 491.719L6.14851 424.337Z" fill="#0163C2"/>
<path d="M36.9058 34.4629H33.9258L33.9258 94.3846H36.9058L36.9058 34.4629Z" fill="#0163C2"/>
</svg>
